<svg xmlns="http://www.w3.org/2000/svg" xmlns:xlink="http://www.w3.org/1999/xlink" viewBox="0 0 512 512"><defs><style>.cls-1{isolation:isolate;}.cls-2{fill:#e04097;}.cls-3{fill:url(#linear-gradient);}.cls-4{fill:#3e3b17;mix-blend-mode:hard-light;}</style><linearGradient id="linear-gradient" x1="103.37" y1="352.82" x2="531.39" y2="352.82" gradientUnits="userSpaceOnUse"><stop offset="0" stop-color="#ece844"/><stop offset="1" stop-color="#b33225"/></linearGradient></defs><g class="cls-1"><g id="Layer_2" data-name="Layer 2"><path class="cls-2" d="M466.23,450.11A362,362,0,0,1,325.54,322.78c49.5-23,83.39-69.95,83.39-124,0-76.91-68.47-139.26-152.93-139.26-81.3,0-147.77,57.77-152.63,130.69h77.5v7c0,7.9-14.71,46.45-63.48,46.45H103.57l0,145.23a17.57,17.57,0,0,0,28.62,13.66l49.12-39.77,55.46,96.05c-30.94,19.87-50.05,47.24-50.05,77.46,0,60.72,77.17,109.95,172.36,109.95s172.36-49.23,172.36-109.95C531.39,501.34,505.94,470.26,466.23,450.11Z"/><path class="cls-3" d="M466.23,450.11A362,362,0,0,1,325.54,322.78c49.5-23,83.39-69.95,83.39-124,0-76.91-68.47-139.26-152.93-139.26-81.3,0-147.77,57.77-152.63,130.69h77.5v7c0,7.9-14.71,46.45-63.48,46.45H103.57l0,145.23a17.57,17.57,0,0,0,28.62,13.66l49.12-39.77,55.46,96.05c-30.94,19.87-50.05,47.24-50.05,77.46,0,60.72,77.17,109.95,172.36,109.95s172.36-49.23,172.36-109.95C531.39,501.34,505.94,470.26,466.23,450.11Z"/><path class="cls-4" d="M466.23,450.11A362,362,0,0,1,325.54,322.78c49.5-23,83.39-69.95,83.39-124,0-76.91-68.47-139.26-152.93-139.26A168.19,168.19,0,0,0,221.74,63C175.45,156,384,136.11,384,191.38c0,35.91-27.66,68.81-73.59,94.31a38.3,38.3,0,0,0-14.65,52.64L443.48,594.19,353.57,646.1q2.71.06,5.46.06c95.19,0,172.36-49.23,172.36-109.95C531.39,501.34,505.94,470.26,466.23,450.11Z"/></g></g></svg>