<svg xmlns="http://www.w3.org/2000/svg" xmlns:xlink="http://www.w3.org/1999/xlink" viewBox="0 0 512 512"><defs><style>.cls-1{isolation:isolate;}.cls-2,.cls-4,.cls-6,.cls-8{fill:none;stroke-miterlimit:10;stroke-width:75px;}.cls-2{stroke:#a7a9ac;}.cls-3{fill:#a7a9ac;}.cls-4{stroke:#bcbec0;}.cls-5{fill:#bcbec0;}.cls-6{stroke:#d1d3d4;}.cls-7{fill:#d1d3d4;}.cls-8{stroke:#fff;}.cls-9{fill:#fff;}.cls-10{fill:url(#linear-gradient);}.cls-11{fill:#5d5b26;mix-blend-mode:hard-light;}</style><linearGradient id="linear-gradient" x1="301.2153" y1="395.3081" x2="595.1401" y2="395.3081" gradientUnits="userSpaceOnUse"><stop offset="0" stop-color="#f7f294"/><stop offset="1" stop-color="#f78e1f"/></linearGradient></defs><g class="cls-1"><g id="Layer_2" data-name="Layer 2"><line class="cls-2" x1="102.3405" y1="74.6667" x2="304.5273" y2="74.6667"/><polygon class="cls-3" points="282.642 149.462 412.171 74.667 282.642 -0.128 282.642 149.462"/><line class="cls-4" x1="102.3405" y1="159.6919" x2="304.5273" y2="159.6919"/><polygon class="cls-5" points="124.225 234.487 -5.303 159.692 124.225 84.897 124.225 234.487"/><line class="cls-6" x1="102.3405" y1="244.717" x2="304.5273" y2="244.717"/><polygon class="cls-7" points="282.642 319.512 412.171 244.717 282.642 169.922 282.642 319.512"/><line class="cls-8" x1="102.3405" y1="329.7422" x2="304.5273" y2="329.7422"/><polygon class="cls-9" points="124.225 404.537 -5.303 329.742 124.225 254.947 124.225 404.537"/><path class="cls-10" d="M550.3981,462.1214a248.5556,248.5556,0,0,1-96.6165-87.4407c33.9933-15.8308,57.264-48.0351,57.264-85.189,0-52.8122-47.0177-95.6249-105.0169-95.6249-55.83,0-101.4758,39.6715-104.8134,89.7437H354.437v4.7849c0,5.4228-10.1013,31.8987-43.5949,31.8987H301.353l-.035,99.7282a12.0638,12.0638,0,0,0,19.6549,9.38l33.7323-27.3109,38.0816,65.9592c-21.2424,13.648-34.37,32.4427-34.37,53.1948,0,41.7,52.9922,75.5039,118.3614,75.5039S595.14,562.9452,595.14,521.2456C595.14,497.2972,577.6615,475.9535,550.3981,462.1214Z"/><path class="cls-11" d="M550.3981,462.1214a248.5556,248.5556,0,0,1-96.6165-87.4407c33.9933-15.8308,57.264-48.0351,57.264-85.189,0-52.8122-47.0177-95.6249-105.0169-95.6249a115.2257,115.2257,0,0,0-23.53,2.4154c-31.7833,63.8474,111.4286,50.2137,111.4286,88.1642,0,24.6626-18.9977,47.2541-50.5355,64.7636A26.3064,26.3064,0,0,0,433.33,385.3626L534.77,561.0615,473.0281,596.708c1.246.0248,2.4952.0415,3.7506.0415,65.3692,0,118.3614-33.8043,118.3614-75.5039C595.14,497.2972,577.6615,475.9535,550.3981,462.1214Z"/></g></g></svg>