<svg xmlns="http://www.w3.org/2000/svg" xmlns:xlink="http://www.w3.org/1999/xlink" viewBox="0 0 512 512"><defs><style>.cls-1{isolation:isolate;}.cls-2,.cls-4,.cls-6,.cls-8{fill:none;stroke-miterlimit:10;stroke-width:75px;}.cls-2{stroke:#a7a9ac;}.cls-3{fill:#a7a9ac;}.cls-4{stroke:#bcbec0;}.cls-5{fill:#bcbec0;}.cls-6{stroke:#d1d3d4;}.cls-7{fill:#d1d3d4;}.cls-8{stroke:#fff;}.cls-9{fill:#fff;}.cls-10{fill:url(#linear-gradient);}.cls-11{fill:#3e3b17;mix-blend-mode:hard-light;}</style><linearGradient id="linear-gradient" x1="301.22" y1="395.31" x2="595.14" y2="395.31" gradientUnits="userSpaceOnUse"><stop offset="0" stop-color="#ece844"/><stop offset="1" stop-color="#b33225"/></linearGradient></defs><g class="cls-1"><g id="Layer_2" data-name="Layer 2"><line class="cls-2" x1="102.34" y1="74.67" x2="304.53" y2="74.67"/><polygon class="cls-3" points="282.64 149.46 412.17 74.67 282.64 -0.13 282.64 149.46"/><line class="cls-4" x1="102.34" y1="159.69" x2="304.53" y2="159.69"/><polygon class="cls-5" points="124.22 234.49 -5.3 159.69 124.22 84.9 124.22 234.49"/><line class="cls-6" x1="102.34" y1="244.72" x2="304.53" y2="244.72"/><polygon class="cls-7" points="282.64 319.51 412.17 244.72 282.64 169.92 282.64 319.51"/><line class="cls-8" x1="102.34" y1="329.74" x2="304.53" y2="329.74"/><polygon class="cls-9" points="124.22 404.54 -5.3 329.74 124.22 254.95 124.22 404.54"/><path class="cls-10" d="M550.4,462.12a248.6,248.6,0,0,1-96.62-87.44c34-15.83,57.27-48,57.27-85.19,0-52.81-47-95.62-105-95.62-55.83,0-101.48,39.67-104.81,89.74h53.22v4.79c0,5.42-10.1,31.89-43.6,31.89h-9.49l0,99.73A12.06,12.06,0,0,0,321,429.4l33.74-27.31,38.08,66c-21.25,13.65-34.37,32.44-34.37,53.2,0,41.7,53,75.5,118.36,75.5s118.36-33.8,118.36-75.5C595.14,497.3,577.66,476,550.4,462.12Z"/><path class="cls-11" d="M550.4,462.12a248.6,248.6,0,0,1-96.62-87.44c34-15.83,57.27-48,57.27-85.19,0-52.81-47-95.62-105-95.62a115.7,115.7,0,0,0-23.53,2.41c-31.78,63.85,111.43,50.22,111.43,88.17,0,24.66-19,47.25-50.54,64.76a26.3,26.3,0,0,0-10.06,36.15l101.44,175.7L473,596.71c1.24,0,2.49,0,3.75,0,65.37,0,118.36-33.8,118.36-75.5C595.14,497.3,577.66,476,550.4,462.12Z"/></g></g></svg>